<svg
  xmlns="http://www.w3.org/2000/svg"
  width="512"
  height="512"
  viewBox="0 0 512 512"
  fill="none"
>
  <rect width="512" height="512" fill="#F0F0F0"/>
  <path
    d="M256 102C189.387 102 135 156.387 135 223C135 289.613 189.387 344 256 344C322.613 344 377 289.613 377 223C377 156.387 322.613 102 256 102ZM230 279C211.673 279 197 264.327 197 246C197 227.673 211.673 213 230 213H282C300.327 213 315 227.673 315 246C315 264.327 300.327 279 282 279H230Z"
    fill="#555555"
  />
  <path
    d="M197 102H164V134H197V102ZM348 102H315V134H348V102ZM197 312H164V344H197V312ZM348 312H315V344H348V312Z"
    fill="#FF6347"
  />
  <path
    d="M256 365C159.228 365 82 287.772 82 191C82 94.2283 159.228 17 256 17C352.772 17 430 94.2283 430 191C430 287.772 352.772 365 256 365ZM256 34C170.557 34 102 102.557 102 191C102 279.443 170.557 348 256 348C341.443 348 410 279.443 410 191C410 102.557 341.443 34 256 34Z"
    fill="#555555"
  />
</svg>
