<svg
  xmlns="http://www.w3.org/2000/svg"
  width="32"
  height="32"
  viewBox="0 0 32 32"
  fill="none"
>
  <rect width="32" height="32" fill="#E5E5E5"/>
  <path
    d="M16 10C13.2386 10 11 12.2386 11 15C11 17.7614 13.2386 20 16 20C18.7614 20 21 17.7614 21 15C21 12.2386 18.7614 10 16 10ZM14.5 14C14.2239 14 14 14.2239 14 14.5C14 14.7761 14.2239 15 14.5 15H17.5C17.7761 15 18 14.7761 18 14.5C18 14.2239 17.7761 14 17.5 14H14.5ZM13 16C12.7239 16 12.5 16.2239 12.5 16.5C12.5 16.7761 12.7239 17 13 17H19C19.2761 17 19.5 16.7761 19.5 16.5C19.5 16.2239 19.2761 16 19 16H13Z"
    fill="#404040"
  />
  <path
    d="M10 10H8V12H10V10ZM24 10H22V12H24V10ZM10 20H8V22H10V20ZM24 20H22V22H24V20Z"
    fill="#FF6347"
  />
  <path
    d="M16 23C10.4772 23 6 18.5228 6 13C6 7.47715 10.4772 3 16 3C21.5228 3 26 7.47715 26 13C26 18.5228 21.5228 23 16 23ZM16 5C11.5817 5 8 8.58172 8 13C8 17.4183 11.5817 21 16 21C20.4183 21 24 17.4183 24 13C24 8.58172 20.4183 5 16 5Z"
    fill="#404040"
  />
</svg>
